HIERARCHY
ROOT Hips
{
	OFFSET 0.00000 0.00000 0.00000
	CHANNELS 6 Xposition Yposition Zposition Zrotation Yrotation Xrotation 
	JOINT LHipJoint
	{
		OFFSET 0 0 0
		CHANNELS 3 Zrotation Yrotation Xrotation
		JOINT LeftUpLeg
		{
			OFFSET 1.56857 -1.73443 1.15205
			CHANNELS 3 Zrotation Yrotation Xrotation
			JOINT LeftLeg
			{
				OFFSET 2.39362 -6.57643 0.00000
				CHANNELS 3 Zrotation Yrotation Xrotation
				JOINT LeftFoot
				{
					OFFSET 2.50952 -6.89485 0.00000
					CHANNELS 3 Zrotation Yrotation Xrotation
					JOINT LeftToeBase
					{
						OFFSET 0.17171 -0.47178 1.88682
						CHANNELS 3 Zrotation Yrotation Xrotation
						End Site
						{
							OFFSET 0.00000 -0.00000 0.98146
						}
					}
				}
			}
		}
	}
	JOINT RHipJoint
	{
		OFFSET 0 0 0
		CHANNELS 3 Zrotation Yrotation Xrotation
		JOINT RightUpLeg
		{
			OFFSET -1.28153 -1.73443 1.15205
			CHANNELS 3 Zrotation Yrotation Xrotation
			JOINT RightLeg
			{
				OFFSET -2.26861 -6.23296 0.00000
				CHANNELS 3 Zrotation Yrotation Xrotation
				JOINT RightFoot
				{
					OFFSET -2.54143 -6.98254 0.00000
					CHANNELS 3 Zrotation Yrotation Xrotation
					JOINT RightToeBase
					{
						OFFSET -0.23309 -0.64041 1.93119
						CHANNELS 3 Zrotation Yrotation Xrotation
						End Site
						{
							OFFSET -0.00000 -0.00000 1.02013
						}
					}
				}
			}
		}
	}
	JOINT LowerBack
	{
		OFFSET 0 0 0
		CHANNELS 3 Zrotation Yrotation Xrotation
		JOINT Spine
		{
			OFFSET -0.07096 2.10460 -0.27878
			CHANNELS 3 Zrotation Yrotation Xrotation
			JOINT Spine1
			{
				OFFSET -0.00826 2.13662 -0.08279
				CHANNELS 3 Zrotation Yrotation Xrotation
				JOINT Neck
				{
					OFFSET 0 0 0
					CHANNELS 3 Zrotation Yrotation Xrotation
					JOINT Neck1
					{
						OFFSET 0.03239 1.77799 0.24435
						CHANNELS 3 Zrotation Yrotation Xrotation
						JOINT Head
						{
							OFFSET 0.01026 1.74194 -0.49664
							CHANNELS 3 Zrotation Yrotation Xrotation
							End Site
							{
								OFFSET 0.00170 1.83057 -0.19653
							}
						}
					}
				}
				JOINT LeftShoulder
				{
					OFFSET 0 0 0
					CHANNELS 3 Zrotation Yrotation Xrotation
					JOINT LeftArm
					{
						OFFSET 3.19178 1.35907 -0.31412
						CHANNELS 3 Zrotation Yrotation Xrotation
						JOINT LeftForeArm
						{
							OFFSET 4.85247 -0.00000 -0.00000
							CHANNELS 3 Zrotation Yrotation Xrotation
							JOINT LeftHand
							{
								OFFSET 3.55584 -0.00000 0.00000
								CHANNELS 3 Zrotation Yrotation Xrotation
								JOINT LeftFingerBase
								{
									OFFSET 0 0 0
									CHANNELS 3 Zrotation Yrotation Xrotation
									JOINT LeftHandIndex1
									{
										OFFSET 0.69320 -0.00000 0.00000
										CHANNELS 3 Zrotation Yrotation Xrotation
										End Site
										{
											OFFSET 0.55888 -0.00000 0.00000
										}
									}
								}
								JOINT LThumb
								{
									OFFSET 0 0 0
									CHANNELS 3 Zrotation Yrotation Xrotation
									End Site
									{
										OFFSET 0.56741 -0.00000 0.56741
									}
								}
							}
						}
					}
				}
				JOINT RightShoulder
				{
					OFFSET 0 0 0
					CHANNELS 3 Zrotation Yrotation Xrotation
					JOINT RightArm
					{
						OFFSET -3.28999 1.24191 -0.26899
						CHANNELS 3 Zrotation Yrotation Xrotation
						JOINT RightForeArm
						{
							OFFSET -4.64462 -0.00000 0.00000
							CHANNELS 3 Zrotation Yrotation Xrotation
							JOINT RightHand
							{
								OFFSET -3.40703 -0.00000 0.00000
								CHANNELS 3 Zrotation Yrotation Xrotation
								JOINT RightFingerBase
								{
									OFFSET 0 0 0
									CHANNELS 3 Zrotation Yrotation Xrotation
									JOINT RightHandIndex1
									{
										OFFSET -0.61958 -0.00000 0.00000
										CHANNELS 3 Zrotation Yrotation Xrotation
										End Site
										{
											OFFSET -0.49952 -0.00000 0.00000
										}
									}
								}
								JOINT RThumb
								{
									OFFSET 0 0 0
									CHANNELS 3 Zrotation Yrotation Xrotation
									End Site
									{
										OFFSET -0.50715 -0.00000 0.50715
									}
								}
							}
						}
					}
				}
			}
		}
	}
}
MOTION
Frames: 9
Frame Time: .0083333
44.0017 16.6362 12.2006 902.8410 28.4903 903.1170 0.0000 0.0000 0.0000 -12.8888 6.3031 -26.7936 1.8613 8.5711 24.4625 -0.1249 8.0985 -8.4399 0.0051 -0.4613 -1.2675 0.0000 0.0000 0.0000 6.2852 -13.0762 22.7081 -0.0025 -0.3229 0.8873 0.1814 -19.8116 -26.5736 -0.1917 2.8198 -7.7775 10.0506 2.1246 6.9469 4.5365 3.9638 3.5671 -1.1511 2.2772 0.1565 7.3742 5.5830 -31.0549 -7.5636 6.6972 21.5909 -2.8193 2.5328 12.8332 -0.0000 0.0000 0.0000 -1.5679 -44.1933 -2.5600 21.4244 -32.3204 -6.2753 -0.0000 0.0000 -5.3902 19.6380 -24.0996 -8.2898 -7.1250 0.0000 -0.0000 -5.9491 4.6919 5.4728 -0.0000 0.0000 0.0000 4.5012 62.1034 -5.9398 -20.7465 31.5312 -5.9168 0.0000 -0.0000 -0.9780 -10.3129 -29.4699 5.1155 7.1250 -0.0000 -0.0000 23.1503 -58.3175 -7.8113
44.0146 16.5880 12.0753 903.0870 28.2520 903.1780 0.0000 0.0000 0.0000 -12.9619 5.7204 -27.3793 2.1565 9.1847 26.3749 -0.1206 8.1373 -8.6532 0.2339 -3.1126 -8.5924 0.0000 0.0000 0.0000 6.0865 -13.3283 23.0435 -0.0051 -0.4616 1.2683 0.2885 -19.8485 -25.7273 -0.2963 3.5002 -9.6747 10.1463 2.1800 6.9597 4.2544 4.0210 3.4893 -1.5015 2.2937 0.1028 7.7396 5.6163 -30.8361 -7.6669 6.5765 21.0802 -2.9378 2.5016 12.5963 0.0000 0.0000 0.0000 -1.1594 -44.1638 -2.7679 21.4084 -32.3020 -6.2668 -0.0000 0.0000 -5.3082 19.8531 -24.2385 -8.4317 -7.1250 0.0000 -0.0000 -5.8292 4.5137 5.3808 0.0000 0.0000 0.0000 5.2065 62.2020 -5.7739 -20.7608 31.5480 -5.9243 0.0000 -0.0000 -0.5355 -10.2779 -29.3285 5.0757 7.1250 -0.0000 -0.0000 23.0800 -58.1809 -7.7090
44.0291 16.5490 11.9531 903.2310 28.1196 903.1480 0.0000 0.0000 0.0000 -12.7582 4.4595 -27.4629 2.4338 9.7165 28.0634 -0.0894 8.5149 -10.2027 0.0807 -1.8325 -5.0429 0.0000 0.0000 0.0000 6.0373 -13.0448 23.5680 -0.0075 -0.5599 1.5387 0.2204 -19.6225 -25.9657 -0.1654 2.6199 -7.2222 10.0651 2.2510 6.9146 4.0178 4.0771 3.5822 -1.6979 2.3246 0.2439 7.7743 5.6698 -30.9226 -7.5814 6.5603 20.6143 -2.9060 2.5072 12.4219 0.0000 -0.0000 0.0000 -0.8030 -44.2349 -3.4149 21.3217 -32.2019 -6.2205 -0.0000 0.0000 -5.1363 20.2442 -24.1735 -8.5882 -7.1250 0.0000 -0.0000 -5.5824 4.5164 5.1505 0.0000 -0.0000 0.0000 5.4446 62.2727 -5.7323 -20.9366 31.7543 -6.0166 0.0000 -0.0000 -0.6921 -10.6116 -29.4931 5.2699 7.1250 -0.0000 -0.0000 22.8635 -58.4041 -7.7559
44.0418 16.5222 11.8319 903.2250 28.0566 903.0540 0.0000 0.0000 0.0000 -12.7544 3.5030 -27.5131 2.6803 10.1585 29.4916 -0.0450 8.6518 -11.4333 0.0270 -1.0614 -2.9177 0.0000 0.0000 0.0000 5.7101 -12.8501 23.8699 -0.0131 -0.7401 2.0338 0.2504 -19.5318 -25.5707 -0.1146 2.1828 -6.0110 9.6200 2.3322 6.9463 3.9276 4.1455 3.6452 -1.5523 2.3522 0.2729 7.7103 5.7255 -31.0905 -7.6262 6.6510 20.4049 -2.8907 2.5335 12.3767 0.0000 0.0000 0.0000 -0.9822 -44.2665 -3.8631 21.2993 -32.1761 -6.2086 -0.0000 0.0000 -5.0797 20.7112 -24.0532 -8.7606 -7.1250 0.0000 -0.0000 -5.2832 4.5630 4.8673 0.0000 0.0000 0.0000 5.6151 62.3871 -5.5079 -21.1139 31.9611 -6.1101 0.0000 -0.0000 -1.0354 -11.0472 -29.5147 5.4939 7.1250 -0.0000 -0.0000 22.4344 -58.5196 -7.6636
44.0543 16.5099 11.7114 903.2730 27.9401 902.9940 0.0000 0.0000 0.0000 -12.7385 2.6772 -27.4274 2.8887 10.5126 30.6532 0.0257 8.4770 -12.5695 0.0039 -0.4054 -1.1138 0.0000 0.0000 0.0000 5.3396 -12.8889 23.9334 -0.0238 -0.9960 2.7379 0.4049 -19.6299 -24.3353 -0.1747 2.6923 -7.4232 9.2625 2.4057 7.1109 3.8268 4.2307 3.5906 -1.4792 2.3770 0.1135 7.9772 5.8073 -30.7155 -8.3729 6.8473 19.6738 -3.1742 2.5593 12.0889 -0.0000 0.0000 0.0000 -1.2928 -44.2904 -3.8965 21.3841 -32.2739 -6.2538 -0.0000 0.0000 -5.4340 21.0138 -23.9389 -8.8594 -7.1250 0.0000 -0.0000 -5.0854 4.6306 4.6771 -0.0000 0.0000 0.0000 6.0520 62.5154 -5.4769 -21.0563 31.8940 -6.0797 0.0000 -0.0000 -0.4206 -10.2406 -28.6673 4.9533 7.1250 -0.0000 -0.0000 22.6350 -57.5680 -7.2115
44.0673 16.5081 11.5910 903.4920 27.7680 903.0080 0.0000 0.0000 0.0000 -12.5781 2.0660 -27.2028 3.0627 10.7958 31.5943 0.1300 8.0112 -13.7674 0.0041 0.4135 1.1363 0.0000 0.0000 0.0000 5.2873 -12.8006 24.0335 -0.0373 -1.2465 3.4272 0.5523 -19.7782 -23.1549 -0.2175 3.0022 -8.2848 9.1540 2.4849 7.2320 3.7055 4.3343 3.5717 -1.5592 2.4208 0.0377 7.5707 5.7659 -30.9850 -7.9030 6.8121 19.6857 -2.9327 2.5669 12.0987 -0.0000 0.0000 0.0000 -1.4973 -44.4225 -3.9571 21.4481 -32.3477 -6.2880 -0.0000 0.0000 -6.1597 21.2605 -24.0348 -9.0050 -7.1250 0.0000 -0.0000 -4.9427 4.4890 4.5580 -0.0000 0.0000 0.0000 6.4865 62.4223 -4.8883 -21.1825 32.0407 -6.1465 0.0000 -0.0000 -1.1979 -10.9024 -28.8167 5.3042 7.1250 -0.0000 -0.0000 22.0712 -57.8465 -7.1698
44.0805 16.5163 11.4668 903.7810 27.6513 903.0920 0.0000 0.0000 0.0000 -12.3716 1.8575 -26.9202 3.1871 10.9919 32.2526 0.2437 7.3090 -14.7261 0.0526 1.4806 4.0723 0.0000 0.0000 0.0000 5.4202 -12.5245 24.1464 -0.0520 -1.4720 4.0486 0.4429 -19.4139 -23.6146 -0.0354 1.2148 -3.3400 9.0914 2.5891 7.2190 3.5993 4.4571 3.5697 -1.6403 2.4792 0.0585 7.7331 5.8546 -30.9762 -7.9500 6.8602 19.4991 -2.9650 2.5960 12.0367 0.0000 -0.0000 0.0000 -1.7156 -44.6556 -4.0852 21.3978 -32.2897 -6.2611 -0.0000 0.0000 -6.6868 21.6171 -24.1179 -9.1977 -7.1250 0.0000 -0.0000 -4.7314 4.3411 4.3749 0.0000 -0.0000 0.0000 6.9223 62.2762 -4.3531 -21.3301 32.2116 -6.2249 0.0000 -0.0000 -1.5586 -10.9829 -29.1360 5.3978 7.1250 -0.0000 -0.0000 22.2201 -58.1577 -7.3900
44.0972 16.5334 11.3380 904.1800 27.6671 903.2610 0.0000 0.0000 0.0000 -12.0634 2.0448 -26.5138 3.2328 11.0627 32.4916 0.3307 6.6711 -15.3224 0.1299 2.3228 6.3985 0.0000 0.0000 0.0000 5.6753 -12.1885 24.1925 -0.0668 -1.6679 4.5887 0.6273 -19.8549 -22.5170 -0.0303 1.1239 -3.0899 9.0966 2.7327 7.0937 3.4883 4.6217 3.5362 -1.7587 2.5585 0.1191 7.9779 5.7676 -30.6666 -8.4642 6.7661 18.9515 -3.2140 2.5191 11.7970 0.0000 0.0000 0.0000 -1.8828 -44.8474 -4.0959 21.3678 -32.2551 -6.2451 -0.0000 0.0000 -6.6979 21.7074 -23.7992 -9.1263 -7.1250 0.0000 -0.0000 -4.6432 4.6574 4.2652 0.0000 0.0000 0.0000 7.4953 62.1757 -3.7480 -21.3895 32.2801 -6.2566 0.0000 -0.0000 -1.6106 -10.9052 -29.2855 5.3839 7.1250 -0.0000 -0.0000 22.4094 -58.2782 -7.5229
44.1176 16.5576 11.2086 904.6630 27.7057 903.4590 0.0000 0.0000 0.0000 -11.6545 2.3877 -25.9220 3.2110 11.0290 32.3777 0.4084 5.9837 -15.7436 0.2307 3.0912 8.5326 0.0000 0.0000 0.0000 5.9548 -11.9823 24.1576 -0.0842 -1.8718 5.1515 0.7254 -20.0998 -21.9167 -0.0007 -0.1687 0.4634 9.1459 2.8859 7.0118 3.3762 4.8091 3.4518 -1.9081 2.6449 0.1093 8.1226 5.7455 -30.3121 -8.4819 6.6830 18.6859 -3.2581 2.5007 11.6319 -0.0000 -0.0000 0.0000 -2.1043 -44.8837 -3.7286 21.5183 -32.4284 -6.3256 -0.0000 0.0000 -6.8783 21.4745 -23.4284 -8.8899 -7.1250 0.0000 -0.0000 -4.7505 5.0837 4.3261 -0.0000 -0.0000 0.0000 8.1748 62.0880 -3.0549 -21.3633 32.2500 -6.2427 0.0000 -0.0000 -1.5271 -10.7379 -29.2250 5.2898 7.1250 -0.0000 -0.0000 22.5353 -58.1861 -7.5175
